/* XPM */
static char * mini_claw_button_xpm[] = {
"16 16 84 1",
" 	c None",
".	c #708668",
"+	c #7F9068",
"@	c #927A5C",
"#	c #966F54",
"$	c #B19775",
"%	c #636345",
"&	c #5B6C54",
"*	c #B3916D",
"=	c #A98163",
"-	c #9B765E",
";	c #AE8C78",
">	c #9E7C6B",
",	c #5F513C",
"'	c #212618",
")	c #473D47",
"!	c #694F5B",
"~	c #97765F",
"{	c #997661",
"]	c #AE8E79",
"^	c #A78571",
"/	c #916E61",
"(	c #826950",
"_	c #1D2016",
":	c #563A47",
"<	c #5F495B",
"[	c #534143",
"}	c #8A6B50",
"|	c #896852",
"1	c #866554",
"2	c #96745F",
"3	c #775243",
"4	c #5B4331",
"5	c #48303F",
"6	c #463B4A",
"7	c #252B28",
"8	c #102016",
"9	c #685640",
"0	c #704E3D",
"a	c #634439",
"b	c #815E4C",
"c	c #855D43",
"d	c #4C3B2B",
"e	c #071B12",
"f	c #332D37",
"g	c #39313E",
"h	c #152721",
"i	c #00150B",
"j	c #000D08",
"k	c #3D3B29",
"l	c #67483B",
"m	c #4E372F",
"n	c #755A44",
"o	c #594532",
"p	c #1B2B1D",
"q	c #01110C",
"r	c #283738",
"s	c #392C37",
"t	c #11221B",
"u	c #001008",
"v	c #000000",
"w	c #313224",
"x	c #17281C",
"y	c #192D20",
"z	c #09261C",
"A	c #01150E",
"B	c #3C383C",
"C	c #2D2C2B",
"D	c #000C07",
"E	c #00170F",
"F	c #001C14",
"G	c #000906",
"H	c #464045",
"I	c #1A211B",
"J	c #000100",
"K	c #3C3E43",
"L	c #0D130F",
"M	c #2A353A",
"N	c #080E0B",
"O	c #293334",
"P	c #0E100E",
"Q	c #252E30",
"R	c #1E1F1F",
"S	c #283732",
"          .     ",
"        +@#$%   ",
"      &*=-;>,'  ",
"     )!~{]^/(_  ",
"    :<[}|1234'  ",
"   567890abcde  ",
"  fghijklmnopq  ",
" rstuv  wxyzAv  ",
" BCDv    EFGv   ",
" HIJ            ",
" KL             ",
" MN             ",
" OP             ",
" QR             ",
"  S             ",
"                "};
